HIERARCHY
ROOT Hips
{
	OFFSET 0.000000 0.000000 0.000000
	CHANNELS 6 Xposition Yposition Zposition Zrotation Yrotation Xrotation 
	JOINT LowerBack
	{
		OFFSET 0.000000 0.000000 0.000000
		CHANNELS 3 Zrotation Yrotation Xrotation
		JOINT Spine
		{
			OFFSET 0.028270 2.035590 -0.193380
			CHANNELS 3 Zrotation Yrotation Xrotation
			JOINT Spine1
			{
				OFFSET 0.056720 2.048850 -0.042750
				CHANNELS 3 Zrotation Yrotation Xrotation
				JOINT Neck
				{
					OFFSET 0.000000 0.000000 0.000000
					CHANNELS 3 Zrotation Yrotation Xrotation
					JOINT Neck1
					{
						OFFSET -0.054170 1.746240 0.172020
						CHANNELS 3 Zrotation Yrotation Xrotation
						JOINT Head
						{
							OFFSET 0.104070 1.761360 -0.123970
							CHANNELS 3 Zrotation Yrotation Xrotation
							End Site
							{
								OFFSET 0.000000 0.000000 0.000000
							}
						}
					}
				}
				JOINT LeftShoulder
				{
					OFFSET 0.000000 0.000000 0.000000
					CHANNELS 3 Zrotation Yrotation Xrotation
					JOINT LeftArm
					{
						OFFSET 3.362410 1.200890 -0.311210
						CHANNELS 3 Zrotation Yrotation Xrotation
						JOINT LeftForeArm
						{
							OFFSET 4.983000 -0.000000 -0.000000
							CHANNELS 3 Zrotation Yrotation Xrotation
							JOINT LeftHand
							{
								OFFSET 3.483560 -0.000000 -0.000000
								CHANNELS 3 Zrotation Yrotation Xrotation
								JOINT LeftFingerBase
								{
									OFFSET 0.000000 0.000000 0.000000
									CHANNELS 3 Zrotation Yrotation Xrotation
									JOINT LeftHandIndex1
									{
										OFFSET 0.715260 -0.000000 -0.000000
										CHANNELS 3 Zrotation Yrotation Xrotation
										End Site
										{
											OFFSET 0.000000 0.000000 0.000000
										}
									}
								}
								JOINT LThumb
								{
									OFFSET 0.000000 0.000000 0.000000
									CHANNELS 3 Zrotation Yrotation Xrotation
									End Site
									{
										OFFSET 0.000000 0.000000 0.000000
									}
								}
							}
						}
					}
				}
				JOINT RightShoulder
				{
					OFFSET 0.000000 0.000000 0.000000
					CHANNELS 3 Zrotation Yrotation Xrotation
					JOINT RightArm
					{
						OFFSET -3.136600 1.374050 -0.404650
						CHANNELS 3 Zrotation Yrotation Xrotation
						JOINT RightForeArm
						{
							OFFSET -5.241900 -0.000000 -0.000000
							CHANNELS 3 Zrotation Yrotation Xrotation
							JOINT RightHand
							{
								OFFSET -3.444170 -0.000000 -0.000000
								CHANNELS 3 Zrotation Yrotation Xrotation
								JOINT RightFingerBase
								{
									OFFSET 0.000000 0.000000 0.000000
									CHANNELS 3 Zrotation Yrotation Xrotation
									JOINT RightHandIndex1
									{
										OFFSET -0.622530 -0.000000 -0.000000
										CHANNELS 3 Zrotation Yrotation Xrotation
										End Site
										{
											OFFSET 0.000000 0.000000 0.000000
										}
									}
								}
								JOINT RThumb
								{
									OFFSET 0.000000 0.000000 0.000000
									CHANNELS 3 Zrotation Yrotation Xrotation
									End Site
									{
										OFFSET 0.000000 0.000000 0.000000
									}
								}
							}
						}
					}
				}
			}
		}
	}
}
}
MOTION
Frames: 12
Frame Time: 0.008333
10.091142 16.320299 1.341776 158.974536 -88.501389 -126.491793 -3.027036 -1.005195 5.166256 -1.457160 -0.884179 -1.793954 -5.578414 -0.953760 0.603293 7.644612 -2.011516 -5.127987 -2.721423 -0.212111 0.316209 0.000000 0.000000 0.000000 2.993864 3.959734 2.989944 -53.551811 9.291046 34.241426 -1.884784 -62.227527 0.002333 -9.349881 4.437818 -0.363183 0.016299 0.005215 -0.000000 0.000000 0.000000 0.000000 0.000000 0.000000 0.000000 11.647466 0.984932 2.640740 51.758258 22.537029 19.305059 2.449144 46.326503 0.018148 2.563391 6.853253 0.154728 0.065932 -0.203472 0.000000 0.000000 0.000000 0.000000 0.000000 0.000000 0.000000 
9.927391 16.385472 1.346757 156.950365 -88.526371 -124.513452 -3.110762 -0.988391 5.211269 -1.459154 -0.861413 -1.782855 -5.516796 -0.930460 0.608129 7.507687 -1.971663 -5.103543 -2.676120 -0.209315 0.322682 0.000000 0.000000 0.000000 2.989294 3.974382 2.974685 -53.188500 9.862418 35.092080 -1.838414 -62.897364 0.002156 -9.631148 4.489230 -0.379136 0.023225 0.001276 0.000000 0.000000 0.000000 0.000000 0.000000 0.000000 0.000000 11.369921 1.051211 2.672356 51.156666 23.082604 20.280136 2.415375 47.052606 0.018095 2.493028 6.904794 0.151429 0.066575 -0.204832 0.000000 0.000000 0.000000 0.000000 0.000000 0.000000 0.000000 
9.760961 16.446301 1.352348 155.086422 -88.548921 -122.700261 -3.194525 -0.966796 5.244810 -1.461191 -0.834087 -1.772917 -5.456002 -0.902420 0.619648 7.366424 -1.974280 -5.081499 -2.627937 -0.206343 0.329220 0.000000 0.000000 0.000000 2.986901 3.996907 2.953679 -52.812963 10.444459 35.945694 -1.793152 -63.548122 0.001855 -9.945235 4.581435 -0.400295 0.030625 -0.003479 0.000000 0.000000 0.000000 0.000000 0.000000 0.000000 0.000000 11.078285 1.073383 2.696174 50.582235 23.618237 21.190913 2.376389 47.822970 0.017946 2.404492 6.921513 0.146329 0.067332 -0.206117 0.000000 0.000000 0.000000 0.000000 0.000000 0.000000 0.000000 
9.591737 16.502445 1.358775 153.894326 -88.547842 -121.563387 -3.288866 -0.935435 5.262230 -1.466058 -0.797321 -1.765907 -5.397441 -0.864926 0.635894 7.224936 -2.015004 -5.061425 -2.578365 -0.203310 0.335985 0.000000 0.000000 0.000000 2.985153 4.022443 2.926318 -52.428738 11.050533 36.793733 -1.748948 -64.175888 0.001413 -10.285495 4.717256 -0.427261 0.038445 -0.009131 0.000000 0.000000 0.000000 0.000000 0.000000 0.000000 0.000000 10.783043 1.058152 2.715310 50.029204 24.144568 22.042865 2.334226 48.630842 0.017753 2.317515 6.907224 0.140529 0.068040 -0.207311 0.000000 0.000000 0.000000 0.000000 0.000000 0.000000 0.000000 
9.419633 16.553552 1.366241 153.846435 -88.505792 -121.573087 -3.402110 -0.891581 5.262013 -1.475502 -0.748371 -1.760009 -5.340840 -0.815060 0.664747 7.087198 -2.106491 -5.054103 -2.528058 -0.200098 0.339774 0.000000 0.000000 0.000000 2.985969 4.090090 2.893586 -52.038138 11.631240 37.657659 -1.707221 -64.757884 0.000829 -10.640899 4.888809 -0.459133 0.046414 -0.015563 0.000000 0.000000 0.000000 0.000000 0.000000 0.000000 0.000000 10.494822 0.993010 2.730662 49.487177 24.700474 22.866492 2.290653 49.457058 0.017556 2.240032 6.878120 0.135129 0.068640 -0.208421 0.000000 0.000000 0.000000 0.000000 0.000000 0.000000 0.000000 
9.244517 16.599287 1.374882 155.191691 -88.414245 -122.976257 -3.536549 -0.832958 5.237600 -1.490367 -0.685007 -1.758912 -5.287875 -0.750964 0.698665 6.956338 -2.225186 -5.053511 -2.478415 -0.196894 0.342373 0.000000 0.000000 0.000000 2.985418 4.179522 2.855896 -51.639531 12.223029 38.522625 -1.667299 -65.304984 0.000107 -11.003794 5.089467 -0.495410 0.054483 -0.022706 0.000000 0.000000 0.000000 0.000000 0.000000 0.000000 0.000000 10.218762 0.904385 2.745757 48.949747 25.256660 23.655847 2.246277 50.310587 0.017410 2.190117 6.842493 0.131429 0.068911 -0.209552 0.000000 0.000000 0.000000 0.000000 0.000000 0.000000 0.000000 
9.066302 16.639283 1.384707 157.979928 -88.265532 -125.818905 -3.689754 -0.757961 5.185720 -1.510210 -0.605648 -1.763865 -5.238757 -0.671210 0.735802 6.833615 -2.359911 -5.060254 -2.429494 -0.193689 0.343571 0.000000 0.000000 0.000000 2.981381 4.295324 2.814218 -51.231671 12.826747 39.387476 -1.629299 -65.818438 -0.000736 -11.365516 5.306142 -0.534588 0.062518 -0.030343 0.000000 0.000000 0.000000 0.000000 0.000000 0.000000 0.000000 9.954618 0.805701 2.762307 48.414335 25.808202 24.417359 2.201602 51.189451 0.017352 2.175062 6.814904 0.130031 0.068749 -0.210842 0.000000 0.000000 0.000000 0.000000 0.000000 0.000000 0.000000 
8.885164 16.673248 1.395739 162.018788 -88.054558 -129.907704 -3.853625 -0.665115 5.103455 -1.533624 -0.508992 -1.776074 -5.193728 -0.574635 0.774242 6.719196 -2.500035 -5.074986 -2.381001 -0.190447 0.343193 0.000000 0.000000 0.000000 2.972782 4.442591 2.769580 -50.812364 13.439798 40.252825 -1.593267 -66.300853 -0.001671 -11.717197 5.523988 -0.574969 0.070384 -0.038221 0.000000 0.000000 0.000000 0.000000 0.000000 0.000000 0.000000 9.698933 0.710048 2.781276 47.880693 26.347793 25.154354 2.156712 52.092254 0.017411 2.196217 6.809001 0.131231 0.068105 -0.212445 0.000000 0.000000 0.000000 0.000000 0.000000 0.000000 0.000000 
8.701089 16.700866 1.407908 166.896685 -87.779512 -134.825630 -4.015764 -0.554138 4.988622 -1.558571 -0.395067 -1.796603 -5.152538 -0.461395 0.811555 6.611357 -2.634803 -5.096937 -2.332096 -0.187116 0.341427 0.000000 0.000000 0.000000 2.957919 4.622286 2.722953 -50.379336 14.063227 41.115713 -1.559076 -66.757623 -0.002662 -12.050754 5.729277 -0.614450 0.077966 -0.046063 0.000000 0.000000 0.000000 0.000000 0.000000 0.000000 0.000000 9.443675 0.630071 2.802669 47.354130 26.862870 25.863811 2.111454 53.017327 0.017590 2.250879 6.833450 0.135232 0.066984 -0.214494 0.000000 0.000000 0.000000 0.000000 0.000000 0.000000 0.000000 
8.514218 16.721942 1.421110 172.109960 -87.442382 -140.066495 -4.163634 -0.426526 4.841215 -1.583059 -0.265624 -1.826125 -5.114662 -0.333297 0.844624 6.507188 -2.755201 -5.124310 -2.281802 -0.183646 0.338761 0.000000 0.000000 0.000000 2.935081 4.829459 2.675336 -49.931855 14.700846 41.969227 -1.526538 -67.195742 -0.003674 -12.360174 5.911645 -0.651430 0.085182 -0.053628 0.000000 0.000000 0.000000 0.000000 0.000000 0.000000 0.000000 9.178641 0.576021 2.825654 46.844866 27.338096 26.537348 2.065548 53.962768 0.017880 2.332999 6.890957 0.141534 0.065432 -0.217084 0.000000 0.000000 0.000000 0.000000 0.000000 0.000000 0.000000 
8.324721 16.736396 1.435353 177.225032 -87.048290 -145.194347 -4.288271 -0.285264 4.663540 -1.605437 -0.123638 -1.863778 -5.078866 -0.193184 0.873548 6.403195 -2.860736 -5.157735 -2.229016 -0.179940 0.334930 0.000000 0.000000 0.000000 2.903102 5.069083 2.628025 -49.469325 15.337824 42.813819 -1.495740 -67.616345 -0.004676 -12.638990 6.063395 -0.684306 0.091899 -0.060707 0.000000 0.000000 0.000000 0.000000 0.000000 0.000000 0.000000 8.894218 0.547903 2.847942 46.363753 27.768749 27.168993 2.018721 54.921046 0.018261 2.432279 6.979704 0.149735 0.063551 -0.220232 0.000000 0.000000 0.000000 0.000000 0.000000 0.000000 0.000000 
8.132932 16.744323 1.450606 -178.049293 -86.602650 -149.922379 -4.386809 -0.133116 4.463197 -1.624844 0.028426 -1.908706 -5.043788 -0.043419 0.893959 6.295175 -2.944876 -5.192634 -2.172756 -0.175982 0.331128 0.000000 0.000000 0.000000 2.861184 5.324842 2.581527 -48.997488 15.986873 43.632059 -1.466602 -68.024707 -0.005646 -12.885729 6.182822 -0.712477 0.098096 -0.067204 0.000000 0.000000 0.000000 0.000000 0.000000 0.000000 0.000000 8.579102 0.552734 2.867711 45.926164 28.136079 27.743626 1.970798 55.886973 0.018700 2.539925 7.089319 0.159140 0.061443 -0.223912 0.000000 0.000000 0.000000 0.000000 0.000000 0.000000 0.000000 
